<svg width="65" height="65" viewBox="0 0 65 65" fill="none" xmlns="http://www.w3.org/2000/svg">
<circle cx="32.5" cy="32.5" r="32.5" fill="#1E7CCF"/>
<path d="M47.5359 33.8659C45.6223 33.8659 44.0718 35.4164 44.0718 37.33C44.0718 37.7729 44.1632 38.1937 44.3146 38.5822L39.5867 42.7088C39.0837 42.4244 38.5114 42.2487 37.8917 42.2487C37.0661 42.2487 36.3192 42.5493 35.7237 43.0303L27.8508 38.0769C27.904 37.8353 27.9363 37.5867 27.9363 37.33C27.9363 35.4164 26.3858 33.8658 24.4722 33.8658C22.5586 33.8658 21.0081 35.4164 21.0081 37.33C21.0081 37.9879 21.2023 38.5972 21.5203 39.121L18.7048 42.488C18.3187 42.3388 17.9035 42.2498 17.4642 42.2498C15.5505 42.2488 14 43.8004 14 45.7129C14 47.6264 15.5505 49.177 17.4641 49.177C19.3777 49.177 20.9282 47.6264 20.9282 45.7129C20.9282 45.085 20.7478 44.5046 20.4564 43.997L23.3135 40.5814C23.6777 40.7109 24.0627 40.7942 24.4721 40.7942C25.2861 40.7942 26.0249 40.5017 26.6157 40.0322L34.5037 44.9948C34.4551 45.2273 34.4273 45.4666 34.4273 45.7129C34.4273 47.6264 35.9778 49.177 37.8914 49.177C39.805 49.177 41.3555 47.6264 41.3555 45.7129C41.3555 45.2654 41.2642 44.841 41.1092 44.4479L45.8302 40.3282C46.3355 40.6162 46.9124 40.7942 47.5357 40.7942C49.4492 40.7942 50.9998 39.2437 50.9998 37.3301C51 35.4177 49.4495 33.8659 47.5359 33.8659Z" fill="white"/>
<path d="M47.5359 17.823C45.6223 17.823 44.0718 19.3735 44.0718 21.2871C44.0718 21.73 44.1632 22.1508 44.3146 22.5393L39.5867 26.6659C39.0837 26.3815 38.5114 26.2058 37.8917 26.2058C37.0661 26.2058 36.3192 26.5064 35.7237 26.9874L27.8507 22.0341C27.9039 21.7924 27.9362 21.5438 27.9362 21.2871C27.9362 19.3735 26.3857 17.823 24.4721 17.823C22.5586 17.823 21.008 19.3734 21.008 21.2871C21.008 21.945 21.2022 22.5544 21.5202 23.0781L18.7047 26.4451C18.3186 26.296 17.9023 26.2058 17.4641 26.2058C15.5505 26.2058 14 27.7574 14 29.6711C14 31.5847 15.5505 33.1352 17.4641 33.1352C19.3777 33.1352 20.9282 31.5847 20.9282 29.6711C20.9282 29.0432 20.7478 28.4628 20.4564 27.9552L23.3135 24.5396C23.6777 24.668 24.0639 24.7523 24.4721 24.7523C25.2861 24.7523 26.0249 24.4598 26.6157 23.9904L34.5037 28.953C34.4551 29.1854 34.4273 29.4247 34.4273 29.671C34.4273 31.5846 35.9778 33.1351 37.8914 33.1351C39.805 33.1351 41.3555 31.5846 41.3555 29.671C41.3555 29.2235 41.2642 28.7992 41.1092 28.4061L45.8302 24.2863C46.3355 24.5742 46.9124 24.7523 47.5357 24.7523C49.4492 24.7523 50.9998 23.2006 50.9998 21.2882C51 19.3747 49.4495 17.823 47.5359 17.823Z" fill="white"/>
</svg>
