<svg width="65" height="65" viewBox="0 0 65 65" fill="none" xmlns="http://www.w3.org/2000/svg">
<circle cx="32.5" cy="32.5" r="32.5" fill="#E73F32"/>
<g clip-path="url(#clip0_740_24)">
<path d="M48.1825 42.3775C47.9475 43.9925 44.6538 48.1849 43.1375 48.7899C42.6163 48.9912 42.1213 48.9462 41.7188 48.6399C41.465 48.4387 41.1975 48.0275 37.6438 42.26L36.5888 40.5412C36.1788 39.9225 36.2563 39.1087 36.765 38.49C37.26 37.8912 37.9825 37.67 38.6138 37.91C38.6463 37.93 41.2763 38.7887 41.2763 38.7887C47.2525 40.7549 47.4488 40.8324 47.7025 41.0212C48.08 41.3337 48.2563 41.8149 48.1775 42.375L48.1825 42.3775ZM36.2038 33.6012C35.7738 32.9562 35.7875 32.195 36.2238 31.6737L37.8838 29.4074C41.53 24.4337 41.7375 24.1725 41.985 23.9974C42.4088 23.7112 42.935 23.6974 43.4363 23.945C44.8813 24.6487 47.805 28.99 47.98 30.6574V30.7162C48.0325 31.2824 47.8038 31.745 47.4075 32.025C47.1338 32.2012 46.88 32.2987 40.0838 33.9524C39.01 34.2262 38.41 34.3762 38.0588 34.5L38.1038 34.4475C37.4338 34.6487 36.685 34.3237 36.255 33.6537L36.2038 33.6012ZM32.0238 31.0237C31.705 31.1212 30.715 31.4275 29.4975 29.4612C29.4975 29.4612 21.275 16.525 21.0863 16.1275C20.9688 15.6787 21.1063 15.17 21.51 14.76C22.7338 13.49 29.3675 11.635 31.1063 12.0587C31.6725 12.2087 32.0638 12.56 32.2 13.0675C32.3038 13.6275 33.1113 25.6262 33.2288 28.315C33.34 30.6137 32.35 30.9262 32.0238 31.0237ZM33.1113 44.1749C33.0913 50.4637 33.0788 50.6787 32.975 50.9787C32.8063 51.4412 32.4025 51.7599 31.8425 51.8574C30.2413 52.1312 25.235 50.2825 24.1863 49.0449C23.985 48.7712 23.8613 48.4975 23.835 48.2187C23.8079 48.0243 23.8351 47.8261 23.9138 47.6462C24.0375 47.3212 24.2138 47.0662 28.7125 41.7937L30.0338 40.225C30.49 39.645 31.2838 39.4699 32.0325 39.7687C32.7613 40.0424 33.2113 40.6674 33.1588 41.3437V44.1437L33.1113 44.1749ZM19.4713 40.1512C18.9825 40.1387 18.54 39.8387 18.28 39.3499C18.0975 38.9924 17.9675 38.4062 17.8825 37.6837C17.655 35.5162 17.935 32.2412 18.5863 31.2062C18.8863 30.7312 19.335 30.4774 19.8238 30.4962C20.1488 30.4962 20.4425 30.5937 26.875 33.2437L28.7563 33.9925C29.4338 34.2462 29.85 34.9425 29.8113 35.7437C29.7588 36.5187 29.31 37.1175 28.6525 37.2937L25.9763 38.1462C19.9938 40.0737 19.7913 40.1187 19.4788 40.0925L19.4713 40.1512ZM44.4325 51.9937H44.4263L44.42 52L44.4325 51.9937Z" fill="white"/>
</g>
<defs>
<clipPath id="clip0_740_24">
<rect width="40" height="40" fill="white" transform="translate(13 12)"/>
</clipPath>
</defs>
</svg>
