<svg width="65" height="65" viewBox="0 0 65 65" fill="none" xmlns="http://www.w3.org/2000/svg">
<circle cx="32.5" cy="32.5" r="32.5" fill="#E73F32"/>
<path d="M50.4375 25.0938C50.4375 26.6081 50.1392 28.1075 49.5597 29.5066C48.9802 30.9056 48.1308 32.1768 47.0601 33.2476C45.9893 34.3183 44.7181 35.1677 43.3191 35.7472C41.92 36.3267 40.4206 36.625 38.9062 36.625C37.3919 36.625 35.8925 36.3267 34.4934 35.7472C33.0944 35.1677 31.8232 34.3183 30.7524 33.2476C29.6816 32.1768 28.8323 30.9056 28.2528 29.5066C27.6733 28.1075 27.375 26.6081 27.375 25.0938C27.375 22.0355 28.5899 19.1025 30.7524 16.9399C32.915 14.7774 35.848 13.5625 38.9062 13.5625C41.9645 13.5625 44.8975 14.7774 47.0601 16.9399C49.2226 19.1025 50.4375 22.0355 50.4375 25.0938ZM44.9384 20.3429C44.8194 20.2236 44.678 20.1289 44.5223 20.0643C44.3667 19.9997 44.1998 19.9665 44.0312 19.9665C43.8627 19.9665 43.6958 19.9997 43.5402 20.0643C43.3845 20.1289 43.2431 20.2236 43.1241 20.3429L36.3438 27.1258L34.6884 25.4679C34.5693 25.3487 34.4278 25.2543 34.2722 25.1898C34.1165 25.1253 33.9497 25.0921 33.7812 25.0921C33.6128 25.0921 33.446 25.1253 33.2903 25.1898C33.1347 25.2543 32.9932 25.3487 32.8741 25.4679C32.755 25.587 32.6605 25.7284 32.596 25.8841C32.5316 26.0397 32.4984 26.2065 32.4984 26.375C32.4984 26.5435 32.5316 26.7103 32.596 26.8659C32.6605 27.0216 32.755 27.163 32.8741 27.2821L35.4366 29.8446C35.5556 29.9639 35.697 30.0586 35.8527 30.1232C36.0083 30.1878 36.1752 30.221 36.3438 30.221C36.5123 30.221 36.6792 30.1878 36.8348 30.1232C36.9905 30.0586 37.1319 29.9639 37.2509 29.8446L44.9384 22.1571C45.0577 22.0381 45.1524 21.8967 45.2169 21.7411C45.2815 21.5854 45.3148 21.4185 45.3148 21.25C45.3148 21.0815 45.2815 20.9146 45.2169 20.7589C45.1524 20.6033 45.0577 20.4619 44.9384 20.3429ZM38.9062 39.1875C41.2125 39.1875 43.3906 38.634 45.3125 37.65V44.3125C45.3125 45.6717 44.7725 46.9753 43.8114 47.9364C42.8503 48.8975 41.5467 49.4375 40.1875 49.4375H19.6875C18.3283 49.4375 17.0247 48.8975 16.0636 47.9364C15.1025 46.9753 14.5625 45.6717 14.5625 44.3125V32.3636L29.3302 40.315C29.5168 40.4155 29.7255 40.4681 29.9375 40.4681C30.1495 40.4681 30.3582 40.4155 30.5448 40.315L34.1605 38.3675C35.6442 38.8979 37.2406 39.1875 38.9062 39.1875ZM19.6875 23.8125H24.8689C24.6318 26.3898 25.1096 28.9826 26.2496 31.3061C27.3897 33.6297 29.148 35.5941 31.3315 36.9838L29.9375 37.7294L14.5625 29.4526V28.9375C14.5625 27.5783 15.1025 26.2747 16.0636 25.3136C17.0247 24.3525 18.3283 23.8125 19.6875 23.8125Z" fill="white"/>
</svg>
