<svg width="65" height="65" viewBox="0 0 65 65" fill="none" xmlns="http://www.w3.org/2000/svg">
<circle cx="32.5" cy="32.5" r="32.5" fill="#E73F32"/>
<path d="M46.0725 20.75H37.113C35.9197 20.7497 34.7752 20.2755 33.9315 19.4315L32.0685 17.5685C31.2248 16.7245 30.0804 16.2503 28.887 16.25H20.625C19.4316 16.25 18.287 16.7241 17.4431 17.568C16.5991 18.4119 16.125 19.5565 16.125 20.75L16.215 22.7075C15.6214 23.5705 15.3491 24.6143 15.4455 25.6573L16.8788 41.4072C16.9804 42.5253 17.4962 43.565 18.3251 44.3222C19.1539 45.0795 20.2359 45.4996 21.3585 45.5H44.6415C45.7642 45.4996 46.8461 45.0795 47.675 44.3222C48.5038 43.565 49.0197 42.5253 49.1213 41.4072L50.5545 25.6573C50.6111 25.0345 50.5373 24.4068 50.3378 23.8141C50.1382 23.2215 49.8174 22.677 49.3957 22.2152C48.974 21.7535 48.4607 21.3848 47.8885 21.1325C47.3163 20.8802 46.6979 20.7499 46.0725 20.75ZM19.9275 20.75C19.3875 20.75 18.87 20.8445 18.3908 21.02L18.375 20.705C18.3868 20.1161 18.6291 19.5553 19.0497 19.143C19.4704 18.7307 20.036 18.4999 20.625 18.5H28.887C29.4837 18.5001 30.0559 18.7373 30.4778 19.1593L32.0685 20.75H19.9275ZM41.5455 32.6097L34.386 37.0422C33.7785 37.4158 33 36.9613 33 36.2053V34.475C33 34.475 27.2153 33.8 24 39.875C25.2848 29.075 31.0718 29.075 33 29.075V27.3448C33 26.5888 33.7785 26.1342 34.386 26.51L41.5455 30.9402C42.153 31.3137 42.153 32.2362 41.5455 32.6097Z" fill="white"/>
</svg>
