<svg width="65" height="65" viewBox="0 0 65 65" fill="none" xmlns="http://www.w3.org/2000/svg">
<circle cx="32.5" cy="32.5" r="32.5" fill="#E73F32"/>
<path d="M30.3411 24.9967C30.4116 25.435 30.45 25.8861 30.45 26.2857C30.45 26.8014 30.4116 27.2525 30.3411 27.6908L31.7633 28.967C32.2118 29.373 32.3975 29.9596 32.1605 30.5783C32.0132 30.8619 31.853 31.2551 31.6736 31.5773L31.475 31.9254C31.2252 32.2477 31.0714 32.557 30.8472 32.86C30.4821 33.3498 29.8414 33.5109 29.2649 33.3176L27.4519 32.7182C26.7664 33.2918 25.9849 33.7494 25.1329 34.0717L24.6908 35.9408C24.6204 36.5402 24.1591 37.0172 23.5569 37.0945C23.1277 37.1461 22.6921 37.1719 22.25 37.1719C21.808 37.1719 21.3724 37.1461 20.9432 37.0945C20.341 37.0172 19.8221 36.5402 19.7516 35.9408L19.3096 34.0717C18.5152 33.7494 17.7336 33.2918 17.045 32.7182L15.2371 33.3176C14.6612 33.5109 14.0193 33.3498 13.6541 32.86C13.4274 32.557 13.2159 32.2412 13.0212 31.9189L12.8277 31.5773C12.649 31.2551 12.4864 30.9199 12.3411 30.5783C12.1038 29.9596 12.2856 29.373 12.738 28.967L14.1589 27.6908C14.0872 27.2525 13.9924 26.8014 13.9924 26.2857C13.9924 25.8861 14.0872 25.435 14.1589 24.9967L12.738 23.7205C12.2856 23.2564 12.1038 22.6699 12.3411 22.1092C12.4864 21.7096 12.649 21.4318 12.8271 21.1076L13.0218 20.7692C13.2159 20.4437 13.4274 20.1292 13.6541 19.8269C14.0193 19.3403 14.6612 19.1785 15.2371 19.3693L17.045 19.9687C17.7336 19.3989 18.5152 18.94 19.3096 18.619L19.7516 16.7454C19.8221 16.1473 20.341 15.6684 20.9432 15.595C21.3768 15.5421 21.8132 15.5156 22.25 15.5156C22.6921 15.5156 23.1277 15.5426 23.5569 15.5949C24.1591 15.6684 24.6204 16.1473 24.6908 16.7454L25.1329 18.619C25.9849 18.94 26.7664 19.3989 27.4519 19.9687L29.2649 19.3693C29.8414 19.1785 30.4821 19.3403 30.8472 19.8269C31.0714 20.1279 31.2252 20.4411 31.475 20.7647L31.6736 21.1121C31.853 21.435 32.0132 21.7676 32.1605 22.1092C32.3975 22.6699 32.2118 23.2564 31.7633 23.7205L30.3411 24.9967ZM22.25 23.192C20.5524 23.192 19.175 24.6357 19.175 26.2857C19.175 28.0518 20.5524 29.3795 22.25 29.3795C23.9477 29.3795 25.325 28.0518 25.325 26.2857C25.325 24.6357 23.9477 23.192 22.25 23.192ZM43.0639 45.8279C42.6283 45.8988 42.1799 45.9375 41.725 45.9375C41.2702 45.9375 40.8218 45.8988 40.3861 45.8279L39.1177 47.2588C38.6564 47.71 38.0735 47.8969 37.5161 47.6584C37.1766 47.5102 36.8435 47.349 36.5232 47.1686L36.1772 46.9687C35.8569 46.7174 35.5494 46.5627 35.2483 46.3371C34.7614 45.9697 34.6013 45.3252 34.7935 44.7451L35.3893 42.9211C34.8191 42.2314 34.3643 41.4451 34.0439 40.5879L32.1861 40.1432C31.5904 40.0723 31.1163 39.6082 31.0394 39.0023C30.9882 38.5705 30.9625 38.1322 30.9625 37.6875C30.9625 37.2428 30.9882 36.8045 31.0394 36.3727C31.1163 35.7668 31.5904 35.2447 32.1861 35.1738L34.0439 34.7291C34.3643 33.9299 34.8191 33.1436 35.3893 32.4539L34.7935 30.6299C34.6013 30.0498 34.7614 29.4053 35.2483 29.0379C35.5494 28.8123 35.8633 28.5416 36.1836 28.3998L36.5232 28.2064C36.8435 28.026 37.1189 27.8648 37.5161 27.7166C38.0735 27.4781 38.6564 27.665 39.1177 28.1162L40.3861 29.5471C40.8218 29.4762 41.2702 29.4375 41.725 29.4375C42.1799 29.4375 42.6283 29.4762 43.0639 29.5471L44.3324 28.1162C44.736 27.665 45.3189 27.4781 45.9339 27.7166C46.2735 27.8648 46.6066 28.026 46.9269 28.2064L47.2664 28.3998C47.5868 28.5416 47.9007 28.8123 48.2018 29.0379C48.6886 29.4053 48.8488 30.0498 48.6566 30.6299L48.0608 32.4539C48.631 33.1436 49.0858 33.9299 49.4061 34.7291L51.264 35.1738C51.8597 35.2447 52.3338 35.7668 52.4107 36.3727C52.4619 36.8045 52.4875 37.2428 52.4875 37.6875C52.4875 38.1322 52.4619 38.5705 52.4107 39.0023C52.3338 39.6082 51.8597 40.0723 51.264 40.1432L49.4061 40.5879C49.0858 41.4451 48.631 42.2314 48.0608 42.9211L48.6566 44.7451C48.8488 45.3252 48.6886 45.9697 48.2018 46.3371C47.9007 46.5627 47.5932 46.7174 47.2729 46.9687L46.9269 47.1686C46.6066 47.349 46.2158 47.5102 45.9339 47.6584C45.3189 47.8969 44.736 47.71 44.3324 47.2588L43.0639 45.8279ZM44.8 37.6875C44.8 35.9795 43.4227 34.5937 41.725 34.5937C40.0274 34.5937 38.65 35.9795 38.65 37.6875C38.65 39.3955 40.0274 40.7812 41.725 40.7812C43.4227 40.7812 44.8 39.3955 44.8 37.6875Z" fill="white"/>
</svg>
