<svg width="65" height="65" viewBox="0 0 65 65" fill="none" xmlns="http://www.w3.org/2000/svg">
<circle cx="32.5" cy="32.5" r="32.5" fill="#1ECF7A"/>
<path d="M29.0785 35.7762V24.1219C29.0785 23.5392 28.6063 23.0662 28.0228 23.0662H16.3685C15.7858 23.0662 15.3127 23.5384 15.3127 24.1219V35.7762C15.3127 36.3589 15.785 36.8319 16.3685 36.8319H28.0228C28.6063 36.8319 29.0785 36.3589 29.0785 35.7762Z" fill="white"/>
<path d="M19.8838 39.2694L24.8403 48.6264H31.6958L26.74 39.2694H19.8838Z" fill="white"/>
<path d="M44.7296 16.7012L31.5161 25.6141V34.2855L44.7296 43.1984C45.9895 44.0477 47.6866 43.145 47.6866 41.6262V18.2734C47.6866 16.7545 45.9895 15.8519 44.7296 16.7012Z" fill="white"/>
</svg>
