<svg width="65" height="65" viewBox="0 0 65 65" fill="none" xmlns="http://www.w3.org/2000/svg">
<circle cx="32.5" cy="32.5" r="32.5" fill="#E73F32"/>
<path d="M17.225 19.3999C16.2901 19.3999 15.3935 19.7713 14.7324 20.4324C14.0713 21.0934 13.7 21.99 13.7 22.9249V44.0749C13.7 45.0098 14.0713 45.9064 14.7324 46.5675C15.3935 47.2285 16.2901 47.5999 17.225 47.5999H47.7749C48.7098 47.5999 49.6064 47.2285 50.2675 46.5675C50.9286 45.9064 51.2999 45.0098 51.2999 44.0749V22.9249C51.2999 21.99 50.9286 21.0934 50.2675 20.4324C49.6064 19.7713 48.7098 19.3999 47.7749 19.3999H17.225ZM24.275 33.4999C23.3401 33.4999 22.4435 33.1285 21.7824 32.4675C21.1213 31.8064 20.75 30.9098 20.75 29.9749C20.75 29.04 21.1213 28.1434 21.7824 27.4824C22.4435 26.8213 23.3401 26.4499 24.275 26.4499C25.2098 26.4499 26.1064 26.8213 26.7675 27.4824C27.4286 28.1434 27.8 29.04 27.8 29.9749C27.8 30.9098 27.4286 31.8064 26.7675 32.4675C26.1064 33.1285 25.2098 33.4999 24.275 33.4999ZM20.6301 35.2624H27.9175C28.5087 35.263 29.0756 35.4982 29.4937 35.9163C29.9118 36.3344 30.147 36.9013 30.1476 37.4926C30.1476 39.483 28.7917 41.2173 26.86 41.7014L26.7213 41.7367C25.1139 42.1362 23.4313 42.1362 21.8239 41.7367L21.6829 41.7014C20.7448 41.4662 19.9123 40.9242 19.3175 40.1617C18.7227 39.3991 18.3997 38.4597 18.4 37.4926C18.4006 36.9013 18.6357 36.3344 19.0538 35.9163C19.4719 35.4982 20.0388 35.263 20.6301 35.2624ZM34.85 29.9749C34.85 29.6633 34.9737 29.3644 35.1941 29.1441C35.4145 28.9237 35.7133 28.7999 36.025 28.7999H43.0749C43.3866 28.7999 43.6854 28.9237 43.9058 29.1441C44.1262 29.3644 44.25 29.6633 44.25 29.9749C44.25 30.2865 44.1262 30.5854 43.9058 30.8058C43.6854 31.0261 43.3866 31.1499 43.0749 31.1499H36.025C35.7133 31.1499 35.4145 31.0261 35.1941 30.8058C34.9737 30.5854 34.85 30.2865 34.85 29.9749ZM36.025 35.8499H43.0749C43.3866 35.8499 43.6854 35.9737 43.9058 36.1941C44.1262 36.4144 44.25 36.7133 44.25 37.0249C44.25 37.3365 44.1262 37.6354 43.9058 37.8558C43.6854 38.0761 43.3866 38.1999 43.0749 38.1999H36.025C35.7133 38.1999 35.4145 38.0761 35.1941 37.8558C34.9737 37.6354 34.85 37.3365 34.85 37.0249C34.85 36.7133 34.9737 36.4144 35.1941 36.1941C35.4145 35.9737 35.7133 35.8499 36.025 35.8499Z" fill="white"/>
</svg>
