<svg width="65" height="65" viewBox="0 0 65 65" fill="none" xmlns="http://www.w3.org/2000/svg">
<circle cx="32.5" cy="32.5" r="32.5" fill="#E73F32"/>
<path d="M24.9166 30.3438V35.6562C24.9166 36.5365 24.2031 37.25 23.3229 37.25H16.5938C15.7135 37.25 15 36.5365 15 35.6562V30.3438C15 29.4635 15.7135 28.75 16.5938 28.75H23.3229C24.2031 28.75 24.9166 29.4635 24.9166 30.3438ZM15 40.9688V46.2812C15 47.1615 15.7135 47.875 16.5938 47.875H23.3229C24.2031 47.875 24.9166 47.1615 24.9166 46.2812V40.9688C24.9166 40.0885 24.2031 39.375 23.3229 39.375H16.5938C15.7135 39.375 15 40.0885 15 40.9688ZM23.3229 18.125H16.5938C15.7135 18.125 15 18.8385 15 19.7188V25.0312C15 25.9115 15.7135 26.625 16.5938 26.625H23.3229C24.2031 26.625 24.9166 25.9115 24.9166 25.0312V19.7188C24.9166 18.8385 24.2031 18.125 23.3229 18.125ZM28.6354 47.875H47.4062C48.2865 47.875 49 47.1615 49 46.2812V40.9688C49 40.0885 48.2865 39.375 47.4062 39.375H28.6354C27.7552 39.375 27.0416 40.0885 27.0416 40.9688V46.2812C27.0416 47.1615 27.7552 47.875 28.6354 47.875ZM27.0416 19.7188V25.0312C27.0416 25.9115 27.7552 26.625 28.6354 26.625H47.4062C48.2865 26.625 49 25.9115 49 25.0312V19.7188C49 18.8385 48.2865 18.125 47.4062 18.125H28.6354C27.7552 18.125 27.0416 18.8385 27.0416 19.7188ZM28.6354 37.25H47.4062C48.2865 37.25 49 36.5365 49 35.6562V30.3438C49 29.4635 48.2865 28.75 47.4062 28.75H28.6354C27.7552 28.75 27.0416 29.4635 27.0416 30.3438V35.6562C27.0416 36.5365 27.7552 37.25 28.6354 37.25Z" fill="white"/>
</svg>
