<svg width="65" height="65" viewBox="0 0 65 65" fill="none" xmlns="http://www.w3.org/2000/svg">
<circle cx="32.5" cy="32.5" r="32.5" fill="#CF1E9D"/>
<path d="M42.4624 34.6691C42.4624 34.8785 42.4571 35.0866 42.4466 35.2934C42.1323 41.4966 37.1583 46.4705 30.9552 46.785C30.7484 46.7954 30.5402 46.8007 30.3308 46.8007C30.1215 46.8007 29.9133 46.7954 29.7065 46.785C23.5034 46.4706 18.5295 41.4966 18.215 35.2935C18.2045 35.0867 18.1992 34.8786 18.1992 34.6692C18.1992 28.1785 23.2966 22.8784 29.7065 22.5534C29.9132 22.5429 30.1215 22.5377 30.3308 22.5377C30.5402 22.5377 30.7483 22.543 30.9552 22.5534C32.6516 22.6395 34.2557 23.0746 35.698 23.7875L39.5149 19.9706C36.8519 18.3032 33.7043 17.3383 30.3308 17.3383C20.7593 17.3383 13 25.0976 13 34.6691C13 44.2407 20.7593 52 30.3308 52C39.9024 52 47.6617 44.2407 47.6617 34.6691C47.6617 31.2956 46.6968 28.148 45.0295 25.4852L41.2126 29.302C42.0123 30.9202 42.4624 32.742 42.4624 34.6691Z" fill="white"/>
<path d="M33.7313 36.7834L27.2321 37.7679L28.2166 31.2688L33.7252 25.7601C32.6706 25.358 31.5265 25.1372 30.3308 25.1372C25.0664 25.1372 20.7988 29.4048 20.7988 34.6692C20.7988 39.9335 25.0664 44.2011 30.3308 44.2011C35.5952 44.2011 39.8627 39.9335 39.8627 34.6692C39.8627 33.4733 39.6419 32.3293 39.2399 31.2747L33.7313 36.7834Z" fill="white"/>
<path d="M50.2448 16.5935L48.4065 14.7552L46.5647 16.5971V13H43.9651V19.1967L30.659 32.5028L30.3308 34.6692L32.4972 34.341L45.8033 21.035H52V18.4354H48.4029L50.2448 16.5935Z" fill="white"/>
</svg>
