<svg width="67" height="67" viewBox="0 0 67 67" fill="none" xmlns="http://www.w3.org/2000/svg">
<circle cx="32.5" cy="32.5" r="32.5" fill="#ECAE10"/>
<g clip-path="url(#clip0_722_15)">
<path d="M25.4838 31.1918L34.9239 40.6318C35.447 41.1549 36.3274 41.2267 36.9283 40.7951C37.0817 40.6849 40.7065 38.0759 42.3974 36.385C47.7751 31.0073 50.5718 23.8469 49.8787 17.2311C49.8521 16.9771 49.7381 16.7381 49.5578 16.5578C49.3774 16.3774 49.1382 16.2634 48.8846 16.2371C42.2688 15.544 35.1084 18.3408 29.7308 23.7184C28.0399 25.4093 25.4308 29.0339 25.3206 29.1874C24.889 29.7883 24.9608 30.6688 25.4838 31.1918ZM42.7469 23.3689C44.3381 24.9601 44.3381 27.5398 42.7469 29.131C41.1557 30.7222 38.576 30.7222 36.9848 29.131C35.3936 27.5398 35.3936 24.9601 36.9848 23.3689C38.576 21.7777 41.1557 21.7777 42.7469 23.3689Z" fill="white"/>
<path d="M32.8277 47.2554C32.8606 47.1842 33.1519 46.5124 33.2504 44.8616C33.2799 44.3645 33.2913 44.0345 33.2821 43.9319C33.2295 43.344 32.8679 42.5504 32.4527 42.1188L23.9907 33.6569C23.5654 33.2479 22.7717 32.8862 22.1837 32.8335C22.0812 32.8243 21.751 32.8357 21.254 32.8654C19.6034 32.9639 18.9315 33.2551 18.8604 33.288C18.3642 33.5173 17.6728 33.9996 17.2864 34.3861L12.1619 39.5105C11.8284 39.844 11.3783 40.3826 11.2022 40.7066L11.1035 40.8882L11.2672 41.3139C11.3191 41.4489 11.3968 41.5687 11.4982 41.6701L11.7103 41.8821L11.8494 41.9065C12.0731 41.946 12.6769 41.9885 13.1316 42.007L19.2128 42.2533C19.0672 42.4988 18.922 42.7893 18.8144 43.0417L16.4306 48.6263C16.2013 49.1637 16.3878 49.4648 16.5194 49.5965C16.6511 49.7281 16.9522 49.9147 17.4897 49.6853L23.0741 47.3016C23.3264 47.1939 23.617 47.0489 23.8623 46.9033L24.1089 52.9844C24.1273 53.4383 24.1697 54.0416 24.2089 54.2657L24.2332 54.4051L24.4457 54.6176C24.5475 54.7193 24.6676 54.7971 24.8008 54.8481L25.2269 55.013L25.409 54.914C25.7331 54.7377 26.2718 54.2874 26.6053 53.9539L31.7298 48.8295C32.1162 48.443 32.5984 47.7516 32.8277 47.2554Z" fill="white"/>
</g>
<defs>
<clipPath id="clip0_722_15">
<rect width="46.7236" height="46.7236" fill="white" transform="translate(33.0386 0.0385742) rotate(45)"/>
</clipPath>
</defs>
</svg>
