<svg width="65" height="65" viewBox="0 0 65 65" fill="none" xmlns="http://www.w3.org/2000/svg">
<circle cx="32.5" cy="32.5" r="32.5" fill="#E73F32"/>
<path d="M48.6714 22.6545L43.3455 17.3286C43.0241 17.0054 42.6419 16.7492 42.2209 16.5748C41.7999 16.4004 41.3485 16.3113 40.8928 16.3125H21.9375C20.7109 16.3125 19.5345 16.7998 18.6671 17.6671C17.7998 18.5345 17.3125 19.7109 17.3125 20.9375V44.0625C17.3125 45.2891 17.7998 46.4655 18.6671 47.3329C19.5345 48.2002 20.7109 48.6875 21.9375 48.6875H45.0625C46.2891 48.6875 47.4655 48.2002 48.3329 47.3329C49.2002 46.4655 49.6875 45.2891 49.6875 44.0625V25.1072C49.6888 24.6515 49.5996 24.2001 49.4252 23.7791C49.2508 23.3581 48.9946 22.9759 48.6714 22.6545ZM23.6719 22.0938H36.3906C36.544 22.0938 36.691 22.1547 36.7994 22.2631C36.9078 22.3715 36.9688 22.5186 36.9688 22.6719V26.1406C36.9688 26.294 36.9078 26.441 36.7994 26.5494C36.691 26.6579 36.544 26.7188 36.3906 26.7188H23.6719C23.5185 26.7188 23.3715 26.6579 23.2631 26.5494C23.1547 26.441 23.0938 26.294 23.0938 26.1406V22.6719C23.0938 22.5186 23.1547 22.3715 23.2631 22.2631C23.3715 22.1547 23.5185 22.0938 23.6719 22.0938ZM33.771 45.2123C32.6057 45.267 31.4512 44.9679 30.4591 44.3543C29.4669 43.7408 28.6836 42.8414 28.212 41.7744C27.7405 40.7075 27.6027 39.5228 27.8169 38.3761C28.031 37.2294 28.587 36.1743 29.4119 35.3494C30.2368 34.5245 31.2919 33.9685 32.4386 33.7544C33.5853 33.5402 34.77 33.678 35.8369 34.1496C36.9039 34.6211 37.8032 35.4044 38.4168 36.3966C39.0304 37.3887 39.3295 38.5433 39.2747 39.7085C39.2063 41.1461 38.6044 42.5066 37.5867 43.5243C36.5691 44.5419 35.2086 45.1438 33.771 45.2123Z" fill="white"/>
<path d="M33.5 42.9062C35.4157 42.9062 36.9688 41.3532 36.9688 39.4375C36.9688 37.5218 35.4157 35.9688 33.5 35.9688C31.5843 35.9688 30.0312 37.5218 30.0312 39.4375C30.0312 41.3532 31.5843 42.9062 33.5 42.9062Z" fill="white"/>
</svg>
