<svg width="65" height="65" viewBox="0 0 65 65" fill="none" xmlns="http://www.w3.org/2000/svg">
<circle cx="32.5" cy="32.5" r="32.5" fill="#E73F32"/>
<path d="M32.0285 24.7218C30.9971 24.7218 30.0079 25.1315 29.2786 25.8609C28.5493 26.5902 28.1395 27.5794 28.1395 28.6108C28.1395 29.6423 28.5493 30.6314 29.2786 31.3608C30.0079 32.0901 30.9971 32.4998 32.0285 32.4998C33.06 32.4998 34.0492 32.0901 34.7785 31.3608C35.5078 30.6314 35.9176 29.6423 35.9176 28.6108C35.9176 27.5794 35.5078 26.5902 34.7785 25.8609C34.0492 25.1315 33.06 24.7218 32.0285 24.7218ZM18.8334 19.6873C18.8334 18.5546 19.2833 17.4683 20.0843 16.6674C20.8852 15.8665 21.9715 15.4165 23.1042 15.4165H42.75C43.3109 15.4165 43.8663 15.527 44.3844 15.7416C44.9026 15.9562 45.3734 16.2708 45.77 16.6674C46.1666 17.064 46.4811 17.5348 46.6958 18.053C46.9104 18.5711 47.0209 19.1265 47.0209 19.6873V44.0311C47.0209 44.3709 46.8859 44.6968 46.6456 44.9371C46.4053 45.1774 46.0794 45.3123 45.7396 45.3123H21.3959C21.3959 45.7654 21.5759 46.1999 21.8962 46.5203C22.2166 46.8407 22.6511 47.0207 23.1042 47.0207H45.7396C46.0794 47.0207 46.4053 47.1557 46.6456 47.3959C46.8859 47.6362 47.0209 47.9621 47.0209 48.3019C47.0209 48.6417 46.8859 48.9676 46.6456 49.2079C46.4053 49.4482 46.0794 49.5832 45.7396 49.5832H23.1042C21.9715 49.5832 20.8852 49.1332 20.0843 48.3323C19.2833 47.5313 18.8334 46.445 18.8334 45.3123V19.6873ZM37.3158 32.1496C38.1943 30.8368 38.553 29.244 38.322 27.6813C38.091 26.1186 37.2868 24.6978 36.0661 23.6952C34.8453 22.6927 33.2952 22.1802 31.7174 22.2574C30.1396 22.3347 28.647 22.9962 27.53 24.1132C26.413 25.2302 25.7515 26.7228 25.6743 28.3006C25.5971 29.8783 26.1096 31.4284 27.1121 32.6492C28.1146 33.87 29.5355 34.6741 31.0982 34.9051C32.6609 35.1361 34.2536 34.7775 35.5665 33.899L39.7963 38.1271L39.9108 38.2262L39.9245 38.2364C40.1755 38.4185 40.4857 38.4996 40.7938 38.4638C41.1018 38.4279 41.3851 38.2776 41.5876 38.0427C41.79 37.8078 41.8968 37.5054 41.8869 37.1955C41.8769 36.8855 41.7508 36.5906 41.5337 36.3692L37.3141 32.1496H37.3158Z" fill="white"/>
</svg>
