<svg width="31" height="37" viewBox="0 0 31 37" fill="none" xmlns="http://www.w3.org/2000/svg">
<path d="M12.6703 1.14469C12.8004 1.01154 12.9558 0.90579 13.1274 0.833682C13.2989 0.761574 13.4832 0.72457 13.6693 0.724855C13.8555 0.725141 14.0396 0.76271 14.211 0.835344C14.3824 0.907978 14.5374 1.01421 14.6671 1.14776L30.5369 17.4311C30.8157 17.717 30.9717 18.1006 30.9717 18.4999C30.9717 18.8992 30.8157 19.2827 30.5369 19.5687L14.6671 35.852C14.5372 35.9854 14.382 36.0914 14.2105 36.1637C14.0391 36.2361 13.8548 36.2734 13.6687 36.2734C13.4826 36.2734 13.2983 36.2361 13.1269 36.1637C12.9554 36.0914 12.8002 35.9854 12.6703 35.852C12.4032 35.5785 12.2537 35.2114 12.2537 34.8291C12.2537 34.4468 12.4032 34.0797 12.6703 33.8063L27.5939 18.4999L12.6703 3.18738C12.4041 2.91405 12.2552 2.54758 12.2552 2.16604C12.2552 1.7845 12.4041 1.41803 12.6703 1.14469V1.14469ZM0.420323 1.14469C0.550366 1.01154 0.705766 0.90579 0.87735 0.833682C1.04893 0.761574 1.23322 0.72457 1.41934 0.724855C1.60546 0.725141 1.78964 0.76271 1.961 0.835344C2.13237 0.907978 2.28744 1.01421 2.41707 1.14776L18.2869 17.4311C18.5657 17.717 18.7217 18.1006 18.7217 18.4999C18.7217 18.8992 18.5657 19.2827 18.2869 19.5687L2.41707 35.852C2.28724 35.9854 2.132 36.0914 1.96052 36.1637C1.78905 36.2361 1.60482 36.2734 1.4187 36.2734C1.23258 36.2734 1.04834 36.2361 0.876871 36.1637C0.705398 36.0914 0.550161 35.9854 0.420323 35.852C0.153205 35.5785 0.00366211 35.2114 0.00366211 34.8291C0.00366211 34.4468 0.153205 34.0797 0.420323 33.8063L15.3439 18.4999L0.420323 3.18738C0.154121 2.91405 0.00515528 2.54758 0.00515528 2.16604C0.00515528 1.7845 0.154121 1.41803 0.420323 1.14469V1.14469Z" fill="#1E7CCF"/>
</svg>
