<svg width="65" height="65" viewBox="0 0 65 65" fill="none" xmlns="http://www.w3.org/2000/svg">
<circle cx="32.5" cy="32.5" r="32.5" fill="#E73F32"/>
<path d="M20.675 15.2998C19.2495 15.2998 17.8824 15.8661 16.8743 16.8741C15.8663 17.8821 15.3 19.2493 15.3 20.6748V21.7498H41.1V20.6748C41.1 19.2493 40.5338 17.8821 39.5257 16.8741C38.5177 15.8661 37.1506 15.2998 35.725 15.2998H20.675ZM41.1 23.8998H15.3V35.7248C15.3 37.1503 15.8663 38.5175 16.8743 39.5255C17.8824 40.5335 19.2495 41.0998 20.675 41.0998H21.75V34.6498C21.75 32.9392 22.4296 31.2986 23.6392 30.089C24.8488 28.8794 26.4894 28.1998 28.2 28.1998H41.1V23.8998ZM24.0505 33.5211C24.2983 32.6103 24.8388 31.8064 25.5887 31.2333C26.3386 30.6602 27.2562 30.3497 28.2 30.3498H45.4001C46.3439 30.3497 47.2615 30.6602 48.0114 31.2333C48.7613 31.8064 49.3018 32.6103 49.5495 33.5211L36.8 41.016L24.0505 33.5211ZM37.6171 43.0305L49.7001 35.9269V45.3998C49.7001 46.5402 49.247 47.634 48.4406 48.4404C47.6342 49.2468 46.5405 49.6998 45.4001 49.6998H28.2C27.0596 49.6998 25.9659 49.2468 25.1595 48.4404C24.3531 47.634 23.9 46.5402 23.9 45.3998V35.9291L35.983 43.0305C36.2307 43.1761 36.5128 43.2528 36.8 43.2528C37.0873 43.2528 37.3694 43.1761 37.6171 43.0305Z" fill="white"/>
</svg>
