<svg width="12" height="21" viewBox="0 0 12 21" fill="none" xmlns="http://www.w3.org/2000/svg">
<path d="M1.95911 0.554442L10.9609 9.78904C11.119 9.95124 11.2075 10.1688 11.2075 10.3953C11.2075 10.6218 11.119 10.8394 10.9609 11.0016L1.95911 20.2396C1.88546 20.3153 1.79741 20.3754 1.70015 20.4164C1.60288 20.4575 1.49838 20.4786 1.39281 20.4786C1.28724 20.4786 1.18273 20.4575 1.08547 20.4164C0.988203 20.3754 0.900149 20.3153 0.826502 20.2396C0.674985 20.0845 0.590159 19.8763 0.590159 19.6594C0.590159 19.4426 0.674985 19.2344 0.826502 19.0792L9.29155 10.3953L0.826502 1.71311C0.675505 1.55807 0.591008 1.3502 0.591008 1.13378C0.591008 0.917354 0.675505 0.709485 0.826502 0.554442C0.900149 0.478801 0.988203 0.418681 1.08547 0.37763C1.18273 0.336579 1.28724 0.31543 1.39281 0.31543C1.49838 0.31543 1.60288 0.336579 1.70015 0.37763C1.79741 0.418681 1.88546 0.478801 1.95911 0.554442Z" fill="#D0D0D0"/>
</svg>
