<svg width="373" height="25" viewBox="0 0 373 25" fill="none" xmlns="http://www.w3.org/2000/svg">
<path d="M2.8 24C1.968 24 1.33867 23.7867 0.912 23.36C0.485333 22.912 0.272 22.2827 0.272 21.472V3.904C0.272 3.09333 0.485333 2.47467 0.912 2.048C1.33867 1.6 1.95733 1.376 2.768 1.376C4.41067 1.376 5.232 2.21867 5.232 3.904V19.808H13.808C15.2373 19.808 15.952 20.5013 15.952 21.888C15.952 23.296 15.2373 24 13.808 24H2.8ZM26.2035 24.352C24.3475 24.352 22.7475 24.0213 21.4035 23.36C20.0808 22.6773 19.0568 21.728 18.3315 20.512C17.6275 19.2747 17.2755 17.824 17.2755 16.16C17.2755 14.5387 17.6168 13.12 18.2995 11.904C19.0035 10.6667 19.9528 9.70667 21.1475 9.024C22.3635 8.32 23.7608 7.968 25.3395 7.968C27.6222 7.968 29.4355 8.69333 30.7795 10.144C32.1235 11.5733 32.7955 13.5147 32.7955 15.968C32.7955 16.7787 32.2942 17.184 31.2915 17.184H21.8835C22.0542 18.4213 22.5022 19.328 23.2275 19.904C23.9742 20.4587 24.9982 20.736 26.2995 20.736C26.8115 20.736 27.3875 20.6827 28.0275 20.576C28.6888 20.448 29.3182 20.2347 29.9155 19.936C30.5342 19.6373 31.0568 19.584 31.4835 19.776C31.9102 19.9467 32.1982 20.2453 32.3475 20.672C32.5182 21.0987 32.5182 21.5467 32.3475 22.016C32.1982 22.464 31.8462 22.8373 31.2915 23.136C30.5448 23.5413 29.7128 23.84 28.7955 24.032C27.8995 24.2453 27.0355 24.352 26.2035 24.352ZM25.5315 11.168C24.5075 11.168 23.6755 11.4773 23.0355 12.096C22.4168 12.7147 22.0328 13.5787 21.8835 14.688H28.7955C28.6675 12.3413 27.5795 11.168 25.5315 11.168ZM43.2243 24.352C38.8083 24.352 36.6003 22.208 36.6003 17.92V11.904H35.2563C33.9976 11.904 33.3682 11.3067 33.3682 10.112C33.3682 8.896 33.9976 8.288 35.2563 8.288H36.6003V5.856C36.6003 4.21333 37.4109 3.392 39.0323 3.392C40.6323 3.392 41.4323 4.21333 41.4323 5.856V8.288H44.4723C45.7096 8.288 46.3283 8.896 46.3283 10.112C46.3283 11.3067 45.7096 11.904 44.4723 11.904H41.4323V17.728C41.4323 18.624 41.6349 19.296 42.0403 19.744C42.4669 20.192 43.1389 20.416 44.0563 20.416C44.3763 20.416 44.6749 20.384 44.9523 20.32C45.2296 20.256 45.4856 20.2133 45.7203 20.192C46.0189 20.1707 46.2643 20.2667 46.4563 20.48C46.6483 20.6933 46.7443 21.1307 46.7443 21.792C46.7443 22.3253 46.6589 22.784 46.4883 23.168C46.3176 23.5307 46.0189 23.7973 45.5923 23.968C45.3149 24.0747 44.9309 24.16 44.4403 24.224C43.9709 24.3093 43.5656 24.352 43.2243 24.352ZM54.4658 24.352C53.5271 24.352 52.5564 24.2667 51.5538 24.096C50.5724 23.9253 49.6764 23.6373 48.8658 23.232C48.3324 22.9547 47.9804 22.6027 47.8098 22.176C47.6604 21.7493 47.6604 21.3333 47.8098 20.928C47.9591 20.5227 48.2258 20.224 48.6098 20.032C48.9938 19.8187 49.4418 19.8187 49.9538 20.032C50.8284 20.3947 51.6284 20.6507 52.3538 20.8C53.1004 20.9493 53.8151 21.024 54.4978 21.024C55.3938 21.024 56.0551 20.8853 56.4818 20.608C56.9084 20.3093 57.1218 19.9253 57.1218 19.456C57.1218 18.7093 56.5778 18.24 55.4898 18.048L52.1298 17.44C50.7858 17.2053 49.7618 16.7253 49.0578 16C48.3538 15.2747 48.0018 14.3253 48.0018 13.152C48.0018 12.0853 48.3004 11.168 48.8978 10.4C49.4951 9.632 50.3164 9.03467 51.3618 8.608C52.4071 8.18133 53.6124 7.968 54.9778 7.968C56.8551 7.968 58.5191 8.33067 59.9698 9.056C60.4604 9.29067 60.7591 9.62133 60.8658 10.048C60.9938 10.4747 60.9724 10.8907 60.8018 11.296C60.6311 11.7013 60.3538 12.0107 59.9698 12.224C59.5858 12.416 59.1271 12.3947 58.5938 12.16C57.8898 11.84 57.2498 11.616 56.6738 11.488C56.0978 11.3387 55.5538 11.264 55.0417 11.264C54.0818 11.264 53.3884 11.424 52.9618 11.744C52.5351 12.0427 52.3218 12.4267 52.3218 12.896C52.3218 13.6427 52.8231 14.112 53.8258 14.304L57.1858 14.912C58.5724 15.1467 59.6284 15.616 60.3538 16.32C61.0791 17.0027 61.4418 17.9413 61.4418 19.136C61.4418 20.7787 60.8018 22.0587 59.5218 22.976C58.2418 23.8933 56.5564 24.352 54.4658 24.352ZM67.2078 24C65.4798 24 64.6158 23.136 64.6158 21.408V4.032C64.6158 2.304 65.4798 1.44 67.2078 1.44H78.3758C79.6771 1.44 80.3278 2.08 80.3278 3.36C80.3278 4.66133 79.6771 5.312 78.3758 5.312H69.3518V10.592H77.6398C78.9624 10.592 79.6238 11.2427 79.6238 12.544C79.6238 13.8453 78.9624 14.496 77.6398 14.496H69.3518V20.128H78.3758C79.6771 20.128 80.3278 20.768 80.3278 22.048C80.3278 23.3493 79.6771 24 78.3758 24H67.2078ZM85.2388 24.224C84.6414 24.224 84.1614 24.064 83.7988 23.744C83.4361 23.4027 83.2441 22.976 83.2228 22.464C83.2228 21.952 83.4361 21.4293 83.8628 20.896L87.9268 15.904L84.2148 11.36C83.7668 10.8053 83.5534 10.272 83.5748 9.76C83.5961 9.248 83.7881 8.832 84.1508 8.512C84.5134 8.192 84.9934 8.032 85.5908 8.032C86.1668 8.032 86.6468 8.128 87.0308 8.32C87.4148 8.512 87.7774 8.832 88.1188 9.28L90.6788 12.608L93.2708 9.28C93.6121 8.832 93.9748 8.512 94.3588 8.32C94.7428 8.128 95.2228 8.032 95.7988 8.032C96.3961 8.032 96.8761 8.20267 97.2388 8.544C97.6014 8.864 97.7828 9.28 97.7828 9.792C97.8041 10.304 97.5908 10.8267 97.1428 11.36L93.4308 15.904L97.5268 20.896C97.9748 21.4293 98.1881 21.952 98.1667 22.464C98.1454 22.976 97.9428 23.4027 97.5588 23.744C97.1961 24.064 96.7161 24.224 96.1188 24.224C95.5641 24.224 95.0841 24.128 94.6788 23.936C94.2948 23.7227 93.9321 23.4027 93.5908 22.976L90.6788 19.264L87.7348 22.976C87.3934 23.3813 87.0308 23.6907 86.6468 23.904C86.2841 24.1173 85.8148 24.224 85.2388 24.224ZM109.162 24.352C104.746 24.352 102.538 22.208 102.538 17.92V11.904H101.194C99.9351 11.904 99.3057 11.3067 99.3057 10.112C99.3057 8.896 99.9351 8.288 101.194 8.288H102.538V5.856C102.538 4.21333 103.348 3.392 104.97 3.392C106.57 3.392 107.37 4.21333 107.37 5.856V8.288H110.41C111.647 8.288 112.266 8.896 112.266 10.112C112.266 11.3067 111.647 11.904 110.41 11.904H107.37V17.728C107.37 18.624 107.572 19.296 107.978 19.744C108.404 20.192 109.076 20.416 109.994 20.416C110.314 20.416 110.612 20.384 110.89 20.32C111.167 20.256 111.423 20.2133 111.658 20.192C111.956 20.1707 112.202 20.2667 112.394 20.48C112.586 20.6933 112.682 21.1307 112.682 21.792C112.682 22.3253 112.596 22.784 112.426 23.168C112.255 23.5307 111.956 23.7973 111.53 23.968C111.252 24.0747 110.868 24.16 110.378 24.224C109.908 24.3093 109.503 24.352 109.162 24.352ZM116.883 24.288C115.219 24.288 114.387 23.4667 114.387 21.824V10.464C114.387 8.84267 115.177 8.032 116.755 8.032C118.334 8.032 119.123 8.84267 119.123 10.464V11.04C119.891 9.14133 121.481 8.11733 123.891 7.968C124.425 7.92533 124.83 8.064 125.107 8.384C125.406 8.68267 125.566 9.184 125.587 9.888C125.63 10.5493 125.491 11.072 125.171 11.456C124.873 11.84 124.361 12.0747 123.635 12.16L122.899 12.224C120.51 12.4587 119.315 13.6747 119.315 15.872V21.824C119.315 23.4667 118.505 24.288 116.883 24.288ZM132.731 24.352C131.557 24.352 130.523 24.128 129.627 23.68C128.731 23.232 128.016 22.624 127.483 21.856C126.971 21.088 126.715 20.224 126.715 19.264C126.715 18.1333 127.013 17.2267 127.611 16.544C128.208 15.8613 129.179 15.3813 130.523 15.104C131.867 14.8053 133.648 14.656 135.867 14.656H137.019V14.112C137.019 13.1733 136.805 12.512 136.379 12.128C135.952 11.7227 135.227 11.52 134.203 11.52C133.627 11.52 132.997 11.5947 132.315 11.744C131.632 11.872 130.896 12.096 130.107 12.416C129.509 12.672 129.008 12.6933 128.603 12.48C128.197 12.2453 127.931 11.904 127.803 11.456C127.675 10.9867 127.707 10.5173 127.899 10.048C128.112 9.57867 128.517 9.23733 129.115 9.024C130.117 8.64 131.056 8.37333 131.931 8.224C132.827 8.05333 133.648 7.968 134.395 7.968C136.827 7.968 138.64 8.52267 139.835 9.632C141.029 10.72 141.627 12.416 141.627 14.72V21.824C141.627 23.4667 140.88 24.288 139.387 24.288C137.872 24.288 137.115 23.4667 137.115 21.824V21.632C136.795 22.464 136.251 23.1253 135.483 23.616C134.736 24.1067 133.819 24.352 132.731 24.352ZM133.819 21.12C134.715 21.12 135.472 20.8107 136.091 20.192C136.709 19.5733 137.019 18.7733 137.019 17.792V17.152H135.899C134.256 17.152 133.093 17.3013 132.411 17.6C131.728 17.8773 131.387 18.368 131.387 19.072C131.387 19.6693 131.589 20.16 131.995 20.544C132.421 20.928 133.029 21.12 133.819 21.12ZM152.879 24.352C151.172 24.352 149.679 24.0213 148.399 23.36C147.14 22.6773 146.17 21.7173 145.487 20.48C144.804 19.2427 144.463 17.7813 144.463 16.096C144.463 14.4107 144.804 12.96 145.487 11.744C146.17 10.528 147.14 9.6 148.399 8.96C149.679 8.29867 151.172 7.968 152.879 7.968C153.54 7.968 154.244 8.05333 154.991 8.224C155.759 8.37333 156.495 8.64 157.199 9.024C157.732 9.28 158.063 9.64267 158.191 10.112C158.319 10.56 158.287 11.008 158.095 11.456C157.924 11.904 157.636 12.2347 157.231 12.448C156.847 12.64 156.388 12.5973 155.855 12.32C155.002 11.872 154.17 11.648 153.359 11.648C152.1 11.648 151.119 12.0427 150.415 12.832C149.732 13.6 149.391 14.6987 149.391 16.128C149.391 17.536 149.732 18.6453 150.415 19.456C151.119 20.2453 152.1 20.64 153.359 20.64C153.743 20.64 154.148 20.5973 154.575 20.512C155.002 20.4053 155.428 20.2347 155.855 20C156.388 19.7227 156.847 19.6907 157.231 19.904C157.636 20.1173 157.914 20.448 158.063 20.896C158.212 21.3227 158.223 21.7707 158.095 22.24C157.967 22.7093 157.647 23.072 157.135 23.328C156.41 23.6907 155.684 23.9467 154.959 24.096C154.234 24.2667 153.54 24.352 152.879 24.352ZM168.318 24.352C163.902 24.352 161.694 22.208 161.694 17.92V11.904H160.35C159.091 11.904 158.462 11.3067 158.462 10.112C158.462 8.896 159.091 8.288 160.35 8.288H161.694V5.856C161.694 4.21333 162.505 3.392 164.126 3.392C165.726 3.392 166.526 4.21333 166.526 5.856V8.288H169.566C170.803 8.288 171.422 8.896 171.422 10.112C171.422 11.3067 170.803 11.904 169.566 11.904H166.526V17.728C166.526 18.624 166.729 19.296 167.134 19.744C167.561 20.192 168.233 20.416 169.15 20.416C169.47 20.416 169.769 20.384 170.046 20.32C170.323 20.256 170.579 20.2133 170.814 20.192C171.113 20.1707 171.358 20.2667 171.55 20.48C171.742 20.6933 171.838 21.1307 171.838 21.792C171.838 22.3253 171.753 22.784 171.582 23.168C171.411 23.5307 171.113 23.7973 170.686 23.968C170.409 24.0747 170.025 24.16 169.534 24.224C169.065 24.3093 168.659 24.352 168.318 24.352Z" fill="#212121"/>
<path d="M185.489 24C183.761 24 182.897 23.136 182.897 21.408V4.032C182.897 2.304 183.761 1.44 185.489 1.44H196.657C197.958 1.44 198.609 2.08 198.609 3.36C198.609 4.66133 197.958 5.312 196.657 5.312H187.633V10.592H195.921C197.244 10.592 197.905 11.2427 197.905 12.544C197.905 13.8453 197.244 14.496 195.921 14.496H187.633V20.128H196.657C197.958 20.128 198.609 20.768 198.609 22.048C198.609 23.3493 197.958 24 196.657 24H185.489ZM204.352 24.288C202.731 24.288 201.92 23.4667 201.92 21.824V10.464C201.92 8.84267 202.709 8.032 204.288 8.032C205.867 8.032 206.656 8.84267 206.656 10.464V10.56C207.125 9.74933 207.765 9.12 208.576 8.672C209.408 8.20267 210.368 7.968 211.456 7.968C212.565 7.968 213.504 8.21333 214.272 8.704C215.061 9.19467 215.659 9.94133 216.064 10.944C216.555 10.0053 217.259 9.28 218.176 8.768C219.115 8.23467 220.149 7.968 221.28 7.968C223.072 7.968 224.405 8.512 225.28 9.6C226.155 10.6667 226.592 12.32 226.592 14.56V21.824C226.592 22.6133 226.379 23.2213 225.952 23.648C225.547 24.0747 224.96 24.288 224.192 24.288C222.571 24.288 221.76 23.4667 221.76 21.824V14.72C221.76 13.6747 221.589 12.9173 221.248 12.448C220.928 11.9573 220.373 11.712 219.584 11.712C218.667 11.712 217.952 12.032 217.44 12.672C216.928 13.312 216.672 14.2187 216.672 15.392V21.824C216.672 23.4667 215.872 24.288 214.272 24.288C213.504 24.288 212.907 24.0747 212.48 23.648C212.053 23.2213 211.84 22.6133 211.84 21.824V14.72C211.84 13.6747 211.669 12.9173 211.328 12.448C210.987 11.9573 210.432 11.712 209.664 11.712C208.747 11.712 208.032 12.032 207.52 12.672C207.008 13.312 206.752 14.2187 206.752 15.392V21.824C206.752 23.4667 205.952 24.288 204.352 24.288ZM235.606 24.352C234.432 24.352 233.398 24.128 232.502 23.68C231.606 23.232 230.891 22.624 230.358 21.856C229.846 21.088 229.59 20.224 229.59 19.264C229.59 18.1333 229.888 17.2267 230.486 16.544C231.083 15.8613 232.054 15.3813 233.398 15.104C234.742 14.8053 236.523 14.656 238.742 14.656H239.894V14.112C239.894 13.1733 239.68 12.512 239.254 12.128C238.827 11.7227 238.102 11.52 237.078 11.52C236.502 11.52 235.872 11.5947 235.19 11.744C234.507 11.872 233.771 12.096 232.982 12.416C232.384 12.672 231.883 12.6933 231.478 12.48C231.072 12.2453 230.806 11.904 230.678 11.456C230.55 10.9867 230.582 10.5173 230.774 10.048C230.987 9.57867 231.392 9.23733 231.99 9.024C232.992 8.64 233.931 8.37333 234.806 8.224C235.702 8.05333 236.523 7.968 237.27 7.968C239.702 7.968 241.515 8.52267 242.71 9.632C243.904 10.72 244.502 12.416 244.502 14.72V21.824C244.502 23.4667 243.755 24.288 242.262 24.288C240.747 24.288 239.99 23.4667 239.99 21.824V21.632C239.67 22.464 239.126 23.1253 238.358 23.616C237.611 24.1067 236.694 24.352 235.606 24.352ZM236.694 21.12C237.59 21.12 238.347 20.8107 238.966 20.192C239.584 19.5733 239.894 18.7733 239.894 17.792V17.152H238.774C237.131 17.152 235.968 17.3013 235.286 17.6C234.603 17.8773 234.262 18.368 234.262 19.072C234.262 19.6693 234.464 20.16 234.87 20.544C235.296 20.928 235.904 21.12 236.694 21.12ZM250.538 5.408C249.642 5.408 248.949 5.20533 248.458 4.8C247.989 4.37333 247.754 3.776 247.754 3.008C247.754 2.21867 247.989 1.62133 248.458 1.216C248.949 0.789332 249.642 0.575998 250.538 0.575998C252.373 0.575998 253.29 1.38667 253.29 3.008C253.29 4.608 252.373 5.408 250.538 5.408ZM250.538 24.256C249.749 24.256 249.141 24.032 248.714 23.584C248.309 23.1147 248.106 22.464 248.106 21.632V10.688C248.106 8.91733 248.917 8.032 250.538 8.032C251.306 8.032 251.893 8.26667 252.298 8.736C252.725 9.184 252.938 9.83467 252.938 10.688V21.632C252.938 22.464 252.735 23.1147 252.33 23.584C251.925 24.032 251.327 24.256 250.538 24.256ZM262.333 24.352C258.557 24.352 256.669 22.2507 256.669 18.048V3.616C256.669 1.97333 257.479 1.152 259.101 1.152C260.701 1.152 261.501 1.97333 261.501 3.616V17.856C261.501 18.7307 261.682 19.3813 262.045 19.808C262.429 20.2133 262.93 20.416 263.549 20.416C263.719 20.416 263.879 20.4053 264.029 20.384C264.199 20.3627 264.359 20.352 264.509 20.352C264.85 20.3307 265.085 20.4373 265.213 20.672C265.362 20.9067 265.437 21.3867 265.437 22.112C265.437 23.3493 264.914 24.0533 263.869 24.224C263.655 24.2453 263.41 24.2667 263.133 24.288C262.855 24.3307 262.589 24.352 262.333 24.352ZM284.742 24.352C283.377 24.352 282.012 24.2027 280.646 23.904C279.281 23.6053 278.097 23.168 277.094 22.592C276.497 22.272 276.124 21.8453 275.974 21.312C275.825 20.7573 275.857 20.224 276.07 19.712C276.284 19.2 276.625 18.8373 277.094 18.624C277.564 18.4107 278.129 18.464 278.79 18.784C279.644 19.2747 280.593 19.6373 281.638 19.872C282.684 20.1067 283.718 20.224 284.742 20.224C286.278 20.224 287.377 19.9893 288.038 19.52C288.721 19.0293 289.062 18.4213 289.062 17.696C289.062 17.0773 288.828 16.5867 288.358 16.224C287.889 15.8613 287.068 15.552 285.894 15.296L282.278 14.528C278.246 13.6747 276.23 11.584 276.23 8.256C276.23 6.82667 276.614 5.57867 277.382 4.512C278.15 3.424 279.217 2.58133 280.582 1.984C281.969 1.38667 283.569 1.088 285.382 1.088C286.577 1.088 287.75 1.23733 288.902 1.536C290.054 1.81333 291.068 2.22933 291.942 2.784C292.476 3.104 292.806 3.52 292.934 4.032C293.062 4.544 293.02 5.03467 292.806 5.504C292.614 5.97333 292.273 6.304 291.782 6.496C291.313 6.688 290.726 6.61333 290.022 6.272C289.318 5.90933 288.572 5.64267 287.782 5.472C286.993 5.30133 286.182 5.216 285.35 5.216C284.006 5.216 282.961 5.48267 282.214 6.016C281.489 6.528 281.126 7.2 281.126 8.032C281.126 8.65067 281.35 9.152 281.798 9.536C282.246 9.92 283.025 10.2293 284.134 10.464L287.75 11.232C291.889 12.128 293.958 14.1547 293.958 17.312C293.958 18.72 293.574 19.9573 292.806 21.024C292.06 22.0693 290.993 22.8907 289.606 23.488C288.241 24.064 286.62 24.352 284.742 24.352ZM304.256 24.352C299.84 24.352 297.632 22.208 297.632 17.92V11.904H296.288C295.029 11.904 294.399 11.3067 294.399 10.112C294.399 8.896 295.029 8.288 296.288 8.288H297.632V5.856C297.632 4.21333 298.442 3.392 300.064 3.392C301.664 3.392 302.464 4.21333 302.464 5.856V8.288H305.504C306.741 8.288 307.36 8.896 307.36 10.112C307.36 11.3067 306.741 11.904 305.504 11.904H302.464V17.728C302.464 18.624 302.666 19.296 303.072 19.744C303.498 20.192 304.17 20.416 305.088 20.416C305.408 20.416 305.706 20.384 305.984 20.32C306.261 20.256 306.517 20.2133 306.752 20.192C307.05 20.1707 307.296 20.2667 307.488 20.48C307.68 20.6933 307.776 21.1307 307.776 21.792C307.776 22.3253 307.69 22.784 307.52 23.168C307.349 23.5307 307.05 23.7973 306.624 23.968C306.346 24.0747 305.962 24.16 305.472 24.224C305.002 24.3093 304.597 24.352 304.256 24.352ZM315.273 24.352C313.268 24.352 311.785 23.7973 310.825 22.688C309.886 21.5787 309.417 19.9147 309.417 17.696V10.464C309.417 8.84267 310.217 8.032 311.817 8.032C313.438 8.032 314.249 8.84267 314.249 10.464V17.824C314.249 19.68 315.049 20.608 316.649 20.608C317.566 20.608 318.313 20.288 318.889 19.648C319.486 18.9867 319.785 18.1227 319.785 17.056V10.464C319.785 8.84267 320.585 8.032 322.185 8.032C323.806 8.032 324.617 8.84267 324.617 10.464V21.824C324.617 23.4667 323.838 24.288 322.281 24.288C321.513 24.288 320.926 24.0747 320.521 23.648C320.116 23.2213 319.913 22.624 319.913 21.856C318.868 23.52 317.321 24.352 315.273 24.352ZM334.468 24.352C333.103 24.352 331.897 24.0213 330.852 23.36C329.828 22.6773 329.028 21.728 328.452 20.512C327.876 19.2747 327.588 17.8133 327.588 16.128C327.588 14.4427 327.876 12.992 328.452 11.776C329.028 10.56 329.828 9.62133 330.852 8.96C331.897 8.29867 333.103 7.968 334.468 7.968C335.513 7.968 336.473 8.192 337.348 8.64C338.223 9.088 338.884 9.68533 339.332 10.432V3.616C339.332 1.97333 340.132 1.152 341.732 1.152C343.353 1.152 344.164 1.97333 344.164 3.616V21.824C344.164 23.4667 343.364 24.288 341.764 24.288C340.164 24.288 339.364 23.4667 339.364 21.824V21.728C338.937 22.5387 338.276 23.1787 337.38 23.648C336.505 24.1173 335.535 24.352 334.468 24.352ZM335.908 20.736C336.932 20.736 337.764 20.3627 338.404 19.616C339.065 18.8693 339.396 17.7067 339.396 16.128C339.396 14.5707 339.065 13.4293 338.404 12.704C337.764 11.9573 336.932 11.584 335.908 11.584C334.884 11.584 334.052 11.9573 333.412 12.704C332.772 13.4293 332.452 14.5707 332.452 16.128C332.452 17.7067 332.772 18.8693 333.412 19.616C334.052 20.3627 334.884 20.736 335.908 20.736ZM350.319 5.408C349.423 5.408 348.73 5.20533 348.239 4.8C347.77 4.37333 347.535 3.776 347.535 3.008C347.535 2.21867 347.77 1.62133 348.239 1.216C348.73 0.789332 349.423 0.575998 350.319 0.575998C352.154 0.575998 353.071 1.38667 353.071 3.008C353.071 4.608 352.154 5.408 350.319 5.408ZM350.319 24.256C349.53 24.256 348.922 24.032 348.495 23.584C348.09 23.1147 347.887 22.464 347.887 21.632V10.688C347.887 8.91733 348.698 8.032 350.319 8.032C351.087 8.032 351.674 8.26667 352.079 8.736C352.506 9.184 352.719 9.83467 352.719 10.688V21.632C352.719 22.464 352.517 23.1147 352.111 23.584C351.706 24.032 351.109 24.256 350.319 24.256ZM364.002 24.352C362.316 24.352 360.844 24.0213 359.586 23.36C358.348 22.6773 357.388 21.728 356.706 20.512C356.023 19.2747 355.682 17.8133 355.682 16.128C355.682 14.464 356.023 13.024 356.706 11.808C357.388 10.5707 358.348 9.62133 359.586 8.96C360.844 8.29867 362.316 7.968 364.002 7.968C365.687 7.968 367.148 8.29867 368.386 8.96C369.644 9.62133 370.615 10.5707 371.298 11.808C372.002 13.024 372.354 14.464 372.354 16.128C372.354 17.8133 372.002 19.2747 371.298 20.512C370.615 21.728 369.644 22.6773 368.386 23.36C367.148 24.0213 365.687 24.352 364.002 24.352ZM364.002 20.736C365.026 20.736 365.858 20.3627 366.498 19.616C367.159 18.8693 367.49 17.7067 367.49 16.128C367.49 14.5707 367.159 13.4293 366.498 12.704C365.858 11.9573 365.026 11.584 364.002 11.584C362.978 11.584 362.146 11.9573 361.506 12.704C360.866 13.4293 360.546 14.5707 360.546 16.128C360.546 17.7067 360.866 18.8693 361.506 19.616C362.146 20.3627 362.978 20.736 364.002 20.736Z" fill="#1E7CCF"/>
</svg>
