<svg width="76" height="16" viewBox="0 0 76 16" fill="none" xmlns="http://www.w3.org/2000/svg">
<g clip-path="url(#clip0_461_870)">
<path d="M3.61212 15.4425C3.22612 15.6405 2.78812 15.2935 2.86612 14.8505L3.69612 10.1205L0.173118 6.76452C-0.155882 6.45052 0.0151183 5.87652 0.456118 5.81452L5.35412 5.11852L7.53812 0.791523C7.73512 0.401523 8.26812 0.401523 8.46512 0.791523L10.6491 5.11852L15.5471 5.81452C15.9881 5.87652 16.1591 6.45052 15.8291 6.76452L12.3071 10.1205L13.1371 14.8505C13.2151 15.2935 12.7771 15.6405 12.3911 15.4425L8.00012 13.1865L3.61112 15.4425H3.61212Z" fill="#FFD80B"/>
</g>
<g clip-path="url(#clip1_461_870)">
<path d="M18.6121 15.4425C18.2261 15.6405 17.7881 15.2935 17.8661 14.8505L18.6961 10.1205L15.1731 6.76452C14.8441 6.45052 15.0151 5.87652 15.4561 5.81452L20.3541 5.11852L22.5381 0.791523C22.7351 0.401523 23.2681 0.401523 23.4651 0.791523L25.6491 5.11852L30.5471 5.81452C30.9881 5.87652 31.1591 6.45052 30.8291 6.76452L27.3071 10.1205L28.1371 14.8505C28.2151 15.2935 27.7771 15.6405 27.3911 15.4425L23.0001 13.1865L18.6111 15.4425H18.6121Z" fill="#FFD80B"/>
</g>
<g clip-path="url(#clip2_461_870)">
<path d="M33.6121 15.4425C33.2261 15.6405 32.7881 15.2935 32.8661 14.8505L33.6961 10.1205L30.1731 6.76452C29.8441 6.45052 30.0151 5.87652 30.4561 5.81452L35.3541 5.11852L37.5381 0.791523C37.7351 0.401523 38.2681 0.401523 38.4651 0.791523L40.6491 5.11852L45.5471 5.81452C45.9881 5.87652 46.1591 6.45052 45.8291 6.76452L42.3071 10.1205L43.1371 14.8505C43.2151 15.2935 42.7771 15.6405 42.3911 15.4425L38.0001 13.1865L33.6111 15.4425H33.6121Z" fill="#FFD80B"/>
</g>
<g clip-path="url(#clip3_461_870)">
<path d="M48.6121 15.4425C48.2261 15.6405 47.7881 15.2935 47.8661 14.8505L48.6961 10.1205L45.1731 6.76452C44.8441 6.45052 45.0151 5.87652 45.4561 5.81452L50.3541 5.11852L52.5381 0.791523C52.7351 0.401523 53.2681 0.401523 53.4651 0.791523L55.6491 5.11852L60.5471 5.81452C60.9881 5.87652 61.1591 6.45052 60.8291 6.76452L57.3071 10.1205L58.1371 14.8505C58.2151 15.2935 57.7771 15.6405 57.3911 15.4425L53.0001 13.1865L48.6111 15.4425H48.6121Z" fill="#FFD80B"/>
</g>
<g clip-path="url(#clip4_461_870)">
<path d="M63.6121 15.4425C63.2261 15.6405 62.7881 15.2935 62.8661 14.8505L63.6961 10.1205L60.1731 6.76452C59.8441 6.45052 60.0151 5.87652 60.4561 5.81452L65.3541 5.11852L67.5381 0.791523C67.7351 0.401523 68.2681 0.401523 68.4651 0.791523L70.6491 5.11852L75.5471 5.81452C75.9881 5.87652 76.1591 6.45052 75.8291 6.76452L72.3071 10.1205L73.1371 14.8505C73.2151 15.2935 72.7771 15.6405 72.3911 15.4425L68.0001 13.1865L63.6111 15.4425H63.6121Z" fill="#FFD80B"/>
</g>
<defs>
<clipPath id="clip0_461_870">
<rect width="16" height="16" fill="white"/>
</clipPath>
<clipPath id="clip1_461_870">
<rect width="16" height="16" fill="white" transform="translate(15)"/>
</clipPath>
<clipPath id="clip2_461_870">
<rect width="16" height="16" fill="white" transform="translate(30)"/>
</clipPath>
<clipPath id="clip3_461_870">
<rect width="16" height="16" fill="white" transform="translate(45)"/>
</clipPath>
<clipPath id="clip4_461_870">
<rect width="16" height="16" fill="white" transform="translate(60)"/>
</clipPath>
</defs>
</svg>
